<?xml version="1.0" encoding="UTF-8" standalone="no"?>
<svg
   fill="#EDB826"
   viewBox="0 0 24 24"
   width="24"
   height="24"
   version="1.1"
   id="svg4"
   sodipodi:docname="circle-min-p.svg"
   inkscape:version="1.2.2 (b0a8486541, 2022-12-01)"
   xmlns:inkscape="http://www.inkscape.org/namespaces/inkscape"
   xmlns:sodipodi="http://sodipodi.sourceforge.net/DTD/sodipodi-0.dtd"
   xmlns="http://www.w3.org/2000/svg"
   xmlns:svg="http://www.w3.org/2000/svg">
  <defs
     id="defs8" />
  <sodipodi:namedview
     id="namedview6"
     pagecolor="#ffffff"
     bordercolor="#000000"
     borderopacity="0.25"
     inkscape:showpageshadow="2"
     inkscape:pageopacity="0.0"
     inkscape:pagecheckerboard="0"
     inkscape:deskcolor="#d1d1d1"
     showgrid="false"
     inkscape:zoom="33.458333"
     inkscape:cx="11.985056"
     inkscape:cy="11.970112"
     inkscape:window-width="1920"
     inkscape:window-height="1028"
     inkscape:window-x="0"
     inkscape:window-y="0"
     inkscape:window-maximized="1"
     inkscape:current-layer="svg4" />
  <circle
     cx="12"
     cy="12"
     r="11"
     id="circle2" />
  <path
     style="fill:#f6c177;stroke-width:0.0298879;fill-opacity:1"
     d="M 11.297634,22.966357 C 10.695138,22.9076 10.464268,22.878468 10.105742,22.815964 7.522421,22.365594 5.2061685,21.012843 3.5100099,18.963885 2.231382,17.419305 1.3723126,15.432625 1.1066219,13.405822 0.99540575,12.557417 0.99526821,11.447693 1.1062734,10.593914 1.4749168,7.7585538 2.9521295,5.1500013 5.1855542,3.3904709 6.8002987,2.1183472 8.6379028,1.3546942 10.729763,1.0864641 c 0.589044,-0.075531 1.95143,-0.075531 2.540474,0 2.061335,0.2643159 3.881338,1.0113132 5.465528,2.2432568 2.070214,1.6099002 3.500954,3.9107273 4.022474,6.4686939 0.83396,4.0904372 -0.719069,8.2983182 -4.008584,10.8611192 -1.590934,1.239467 -3.382434,1.976589 -5.473667,2.252168 -0.316294,0.04168 -1.715129,0.08033 -1.978354,0.05466 z"
     id="path306" />
</svg>
