<?xml version="1.0" encoding="UTF-8" standalone="no"?>
<svg
   fill="#eb227b"
   viewBox="0 0 24 24"
   width="24"
   height="24"
   version="1.1"
   id="svg4"
   sodipodi:docname="circle-close-p.svg"
   inkscape:version="1.2.2 (b0a8486541, 2022-12-01)"
   xmlns:inkscape="http://www.inkscape.org/namespaces/inkscape"
   xmlns:sodipodi="http://sodipodi.sourceforge.net/DTD/sodipodi-0.dtd"
   xmlns="http://www.w3.org/2000/svg"
   xmlns:svg="http://www.w3.org/2000/svg">
  <defs
     id="defs8" />
  <sodipodi:namedview
     id="namedview6"
     pagecolor="#ffffff"
     bordercolor="#000000"
     borderopacity="0.25"
     inkscape:showpageshadow="2"
     inkscape:pageopacity="0.0"
     inkscape:pagecheckerboard="0"
     inkscape:deskcolor="#d1d1d1"
     showgrid="false"
     inkscape:zoom="33.458333"
     inkscape:cx="11.985056"
     inkscape:cy="11.970112"
     inkscape:window-width="1920"
     inkscape:window-height="1028"
     inkscape:window-x="0"
     inkscape:window-y="0"
     inkscape:window-maximized="1"
     inkscape:current-layer="svg4" />
  <circle
     cx="12"
     cy="12"
     r="11"
     id="circle2" />
  <path
     style="fill:#eb6f92;stroke-width:0.0298879;fill-opacity:1"
     d="M 11.297634,22.966293 C 10.397414,22.878986 9.8962521,22.79733 9.2652553,22.635153 5.5118648,21.670466 2.5450303,18.791519 1.4520366,15.053391 0.19841383,10.765898 1.7078306,6.108558 5.2477219,3.3417168 6.8226279,2.110743 8.6706196,1.3504991 10.729763,1.0864641 c 0.589044,-0.075531 1.95143,-0.075531 2.540474,0 2.067341,0.2650862 3.8885,1.014554 5.482041,2.2560441 2.054883,1.6009108 3.486508,3.9080828 4.005961,6.4559066 0.899276,4.4107992 -0.973059,8.9090862 -4.735823,11.3778192 -1.458598,0.956979 -2.984191,1.512822 -4.767123,1.736877 -0.324935,0.04083 -1.699853,0.07818 -1.957659,0.05318 z"
     id="path360" />
</svg>
